<?xml version="1.0" encoding="UTF-8"?>
<svg xmlns="http://www.w3.org/2000/svg" xmlns:xlink="http://www.w3.org/1999/xlink" width="499.2pt" height="117pt" viewBox="0 0 499.2 117" version="1.1">
<g id="surface1">
<path style=" stroke:none;fill-rule:evenodd;fill:rgb(100%,80.076599%,0%);fill-opacity:1;" d="M 262.765625 0.304688 C 267.144531 -0.046875 271.496094 0.90625 275.683594 2.097656 L 275.863281 2.214844 C 276.703125 2.421875 277.519531 2.722656 278.339844 3.011719 C 280.042969 3.621094 281.746094 4.246094 283.449219 4.867188 C 283.546875 4.890625 283.738281 4.941406 283.839844 4.96875 C 284.035156 5.042969 284.242188 5.117188 284.445313 5.1875 C 286.324219 5.863281 288.441406 6.34375 290.375 5.601563 C 291.351563 5.335938 292.03125 4.550781 292.679688 3.824219 C 293.449219 2.78125 293.765625 1.488281 293.996094 0.238281 C 295.152344 0.246094 296.3125 0.242188 297.46875 0.242188 C 298.746094 12.167969 299.957031 24.105469 301.167969 36.039063 C 299.785156 36.039063 298.398438 36.042969 297.019531 36.039063 C 296.863281 35.089844 296.566406 34.171875 296.359375 33.234375 L 296.246094 33.058594 C 295.066406 28.65625 293.035156 24.496094 290.453125 20.75 C 288.421875 17.84375 286.019531 15.167969 283.164063 13.046875 C 278.042969 9.007813 271.457031 6.882813 264.941406 7.15625 C 260.375 7.265625 255.75 9.0625 252.613281 12.4375 C 251.300781 13.835938 250.320313 15.519531 249.660156 17.3125 C 249.636719 17.410156 249.585938 17.601563 249.566406 17.699219 C 248.257813 21.609375 248.566406 26.039063 250.324219 29.765625 C 252.039063 33.285156 254.765625 36.210938 257.769531 38.675781 C 264.164063 43.84375 271.492188 47.644531 278.496094 51.894531 C 284.953125 55.804688 291.398438 59.960938 296.570313 65.527344 C 299.320313 68.574219 301.710938 72.027344 303.109375 75.914063 C 304.691406 80.03125 305.167969 84.527344 304.734375 88.902344 C 304.253906 93.292969 302.742188 97.554688 300.390625 101.289063 C 298.070313 105.007813 294.859375 108.128906 291.214844 110.550781 C 283.8125 115.316406 274.730469 116.890625 266.050781 116.25 C 261.789063 115.925781 257.613281 114.910156 253.574219 113.542969 C 250.6875 112.609375 247.878906 111.402344 244.894531 110.808594 C 243.511719 110.511719 241.980469 110.605469 240.75 111.351563 C 239.050781 112.339844 238.183594 114.300781 238.148438 116.214844 C 236.9375 116.21875 235.726563 116.203125 234.519531 116.226563 C 232.832031 104.332031 231.160156 92.4375 229.472656 80.542969 C 230.746094 80.546875 232.015625 80.550781 233.289063 80.542969 C 234.707031 84.109375 236.261719 87.621094 238.125 90.984375 C 240.25 94.605469 242.617188 98.144531 245.671875 101.058594 C 248.945313 104.484375 253.027344 107.125 257.488281 108.710938 C 257.585938 108.734375 257.777344 108.78125 257.875 108.804688 C 262.171875 110.277344 266.816406 110.699219 271.316406 110.144531 C 275.648438 109.546875 279.890625 107.667969 282.882813 104.421875 C 285.777344 101.390625 287.652344 97.3125 287.847656 93.113281 L 287.945313 92.925781 C 288.003906 90.1875 287.9375 87.359375 287.050781 84.738281 C 287.027344 84.644531 286.976563 84.449219 286.953125 84.355469 C 285.625 80.722656 283.042969 77.695313 280.15625 75.1875 C 277.429688 72.730469 274.410156 70.632813 271.398438 68.546875 C 267.75 66.183594 264.070313 63.878906 260.304688 61.707031 C 257.128906 59.867188 253.960938 58.003906 250.925781 55.929688 C 247.359375 53.601563 244.023438 50.890625 241.171875 47.714844 C 238.605469 44.84375 236.675781 41.414063 235.542969 37.730469 C 234.933594 35.488281 234.480469 33.195313 234.417969 30.867188 C 234.332031 28.28125 234.351563 25.671875 234.839844 23.121094 C 235.632813 18.617188 237.515625 14.265625 240.480469 10.761719 C 242.414063 8.507813 244.648438 6.484375 247.222656 4.984375 C 251.882813 2.117188 257.324219 0.625 262.765625 0.304688 Z M 431.632813 1.703125 C 435.414063 0.640625 439.355469 0.0976563 443.28125 0.277344 C 447.636719 0.570313 451.886719 1.738281 455.972656 3.234375 C 456.066406 3.257813 456.257813 3.304688 456.351563 3.328125 C 457.699219 3.90625 459.101563 4.335938 460.464844 4.871094 C 460.566406 4.890625 460.757813 4.941406 460.855469 4.964844 C 462.855469 5.703125 465.078125 6.371094 467.195313 5.683594 C 468.925781 5.179688 470.109375 3.625 470.632813 1.957031 C 470.84375 1.402344 470.964844 0.820313 471.023438 0.230469 C 472.1875 0.253906 473.359375 0.238281 474.527344 0.238281 C 475.246094 6.945313 475.90625 13.65625 476.613281 20.359375 C 477.121094 25.589844 477.742188 30.808594 478.1875 36.042969 C 476.824219 36.042969 475.457031 36.035156 474.09375 36.046875 C 473.671875 34.566406 473.40625 33.039063 472.859375 31.597656 C 472.835938 31.5 472.785156 31.304688 472.761719 31.210938 C 470.730469 25.410156 467.59375 19.914063 463.171875 15.609375 C 458.679688 11.15625 452.765625 8.070313 446.449219 7.339844 C 442.882813 6.941406 439.152344 7.03125 435.785156 8.394531 C 432.738281 9.492188 430.007813 11.542969 428.222656 14.253906 C 425.882813 17.796875 425.3125 22.316406 426.199219 26.417969 C 427.136719 30.402344 429.605469 33.839844 432.515625 36.644531 C 437.46875 41.300781 443.394531 44.707031 449.207031 48.160156 C 454.449219 51.246094 459.742188 54.273438 464.6875 57.824219 C 469.042969 60.949219 473.152344 64.515625 476.339844 68.859375 C 478.273438 71.503906 479.757813 74.464844 480.742188 77.59375 C 482.578125 83.882813 482.292969 90.8125 479.722656 96.859375 C 477.613281 102.007813 473.957031 106.46875 469.460938 109.730469 C 466.1875 112.070313 462.46875 113.726563 458.613281 114.851563 C 451.425781 116.730469 443.777344 116.933594 436.539063 115.226563 C 434.789063 114.910156 433.125 114.265625 431.40625 113.84375 L 431.230469 113.707031 C 431.117188 113.695313 430.902344 113.671875 430.792969 113.65625 L 430.609375 113.53125 C 430.394531 113.46875 430.183594 113.402344 429.980469 113.332031 C 429.886719 113.304688 429.695313 113.25 429.59375 113.226563 C 428.390625 112.695313 427.101563 112.394531 425.890625 111.890625 C 425.792969 111.867188 425.597656 111.816406 425.5 111.792969 C 424.832031 111.539063 424.148438 111.34375 423.457031 111.164063 C 421.746094 110.683594 419.816406 110.316406 418.15625 111.164063 C 416.253906 112.046875 415.195313 114.171875 415.195313 116.214844 C 413.976563 116.21875 412.753906 116.207031 411.539063 116.222656 C 409.910156 104.324219 408.164063 92.441406 406.527344 80.546875 C 407.789063 80.546875 409.050781 80.550781 410.3125 80.542969 C 411.8125 84.195313 413.359375 87.835938 415.339844 91.261719 C 417.390625 94.789063 419.746094 98.191406 422.683594 101.054688 C 426.996094 105.519531 432.683594 108.695313 438.804688 109.835938 C 443.257813 110.621094 447.957031 110.691406 452.28125 109.214844 C 452.375 109.191406 452.570313 109.140625 452.664063 109.117188 C 457.882813 107.316406 462.195313 103.054688 463.972656 97.816406 C 464 97.71875 464.046875 97.523438 464.070313 97.425781 C 465.1875 94.214844 465.179688 90.734375 464.734375 87.402344 C 464.402344 85.480469 463.867188 83.566406 462.882813 81.871094 C 460.207031 77.25 455.902344 73.910156 451.667969 70.796875 C 446.328125 66.984375 440.679688 63.625 435.003906 60.339844 C 429.070313 56.789063 423.054688 53.101563 418.394531 47.910156 C 415.367188 44.585938 413.199219 40.488281 412.167969 36.109375 C 411.191406 31.589844 411.128906 26.859375 412.039063 22.324219 C 412.890625 18.140625 414.722656 14.148438 417.441406 10.855469 C 421.074219 6.417969 426.175781 3.355469 431.632813 1.703125 Z M 481.09375 6.472656 C 482.65625 3.371094 486.109375 1.375 489.570313 1.460938 C 493.460938 1.503906 497.085938 4.222656 498.332031 7.890625 C 499.203125 10.644531 498.867188 13.800781 497.179688 16.179688 C 496.117188 17.898438 494.378906 19.0625 492.539063 19.820313 C 492.445313 19.84375 492.257813 19.890625 492.160156 19.910156 C 490.375 20.488281 488.402344 20.425781 486.601563 19.933594 C 484.234375 19.160156 482.152344 17.511719 481.039063 15.269531 C 479.582031 12.574219 479.605469 9.152344 481.09375 6.472656 Z M 487.84375 3.035156 C 486.308594 3.34375 484.890625 4.171875 483.828125 5.320313 C 481.214844 8.230469 481.0625 13.027344 483.503906 16.085938 C 485.367188 18.539063 488.847656 19.558594 491.75 18.554688 C 494.554688 17.675781 496.574219 14.992188 496.914063 12.109375 C 497.320313 9.328125 496.292969 6.308594 494.085938 4.515625 C 492.371094 3.101563 490.003906 2.597656 487.84375 3.035156 Z M 301.683594 2.632813 C 317.363281 2.632813 333.042969 2.636719 348.722656 2.632813 C 348.722656 3.675781 348.71875 4.71875 348.722656 5.761719 C 346.476563 5.851563 344.226563 5.960938 341.992188 6.242188 C 340.484375 6.515625 338.839844 6.816406 337.742188 7.984375 C 336.699219 9.195313 336.496094 10.964844 336.957031 12.460938 C 337.378906 14.375 338.269531 16.152344 339.304688 17.804688 C 343.835938 24.589844 348.351563 31.378906 352.871094 38.167969 C 356.21875 43.144531 359.460938 48.191406 362.816406 53.164063 C 363.382813 53.953125 363.824219 54.839844 364.507813 55.542969 C 366.636719 52.375 368.601563 49.085938 370.675781 45.875 C 376.207031 37.09375 381.765625 28.328125 387.304688 19.550781 C 388.410156 17.78125 389.625 16.046875 390.386719 14.089844 C 390.980469 12.402344 391.203125 10.378906 390.203125 8.800781 C 389.425781 7.542969 388.015625 6.886719 386.660156 6.464844 C 384.269531 5.808594 381.773438 5.789063 379.316406 5.753906 C 379.316406 4.714844 379.308594 3.675781 379.316406 2.636719 C 391.554688 2.628906 403.796875 2.636719 416.039063 2.632813 C 416.035156 3.675781 416.035156 4.71875 416.035156 5.761719 C 413.722656 6.035156 411.363281 6.351563 409.25 7.386719 C 405.777344 9.003906 402.980469 11.742188 400.496094 14.601563 C 397.921875 17.582031 395.652344 20.8125 393.449219 24.078125 C 392.320313 25.929688 391.078125 27.710938 389.890625 29.527344 C 389.027344 30.964844 388.0625 32.335938 387.148438 33.738281 C 380.777344 43.527344 374.351563 53.285156 367.992188 63.082031 C 368.011719 74.632813 367.988281 86.183594 368.003906 97.734375 C 368.128906 99.960938 368.179688 102.242188 368.929688 104.367188 C 368.953125 104.46875 369.007813 104.667969 369.03125 104.765625 C 369.675781 106.535156 370.953125 108.117188 372.667969 108.945313 C 374.40625 109.855469 376.359375 110.199219 378.28125 110.488281 C 380.617188 110.761719 382.96875 110.878906 385.320313 110.820313 C 385.304688 111.902344 385.308594 112.984375 385.320313 114.070313 C 368.191406 114.058594 351.0625 114.070313 333.929688 114.0625 C 333.9375 112.984375 333.9375 111.90625 333.929688 110.828125 C 337.5625 110.824219 341.261719 110.621094 344.746094 109.519531 C 346.652344 108.855469 348.503906 107.648438 349.410156 105.785156 C 350.296875 104.140625 350.554688 102.25 350.734375 100.414063 C 351.039063 95.578125 350.847656 90.722656 350.902344 85.871094 C 350.898438 78.746094 350.90625 71.621094 350.898438 64.492188 C 349.6875 62.820313 348.539063 61.109375 347.402344 59.390625 C 340.308594 49.046875 333.292969 38.652344 326.203125 28.304688 C 321.96875 22.25 317.792969 16.082031 312.6875 10.710938 C 311.441406 9.558594 310.195313 8.382813 308.707031 7.558594 C 306.597656 6.28125 304.09375 5.972656 301.683594 5.769531 C 301.683594 4.722656 301.683594 3.679688 301.683594 2.636719 Z M 485.761719 5.335938 C 487.308594 5.335938 488.855469 5.328125 490.410156 5.339844 C 491.496094 5.375 492.722656 5.695313 493.355469 6.667969 C 493.898438 7.476563 493.902344 8.542969 493.6875 9.460938 C 493.417969 10.667969 492.257813 11.585938 491.011719 11.550781 C 492.039063 13.199219 493.089844 14.839844 494.152344 16.460938 C 493.472656 16.464844 492.796875 16.464844 492.121094 16.445313 C 491.179688 14.828125 490.140625 13.265625 489.148438 11.675781 C 488.691406 11.417969 488.097656 11.605469 487.589844 11.550781 C 487.59375 13.1875 487.585938 14.824219 487.59375 16.460938 C 486.980469 16.460938 486.371094 16.460938 485.765625 16.460938 C 485.75 12.75 485.765625 9.046875 485.761719 5.335938 Z M 487.589844 6.769531 C 487.589844 7.882813 487.589844 8.996094 487.589844 10.109375 C 488.75 10.023438 489.953125 10.269531 491.082031 9.90625 C 492.339844 9.488281 492.261719 7.371094 491.007813 6.988281 C 489.898438 6.660156 488.726563 6.792969 487.589844 6.769531 Z M 487.589844 6.769531 "/>
<path style=" stroke:none;fill-rule:evenodd;fill:rgb(19.993591%,19.993591%,19.993591%);fill-opacity:1;" d="M 32.734375 26.980469 C 35.828125 18.671875 38.988281 10.382813 42.054688 2.066406 C 54.105469 2.066406 66.15625 2.0625 78.210938 2.066406 C 91.492188 37.515625 104.789063 72.964844 118.109375 108.394531 C 118.257813 105.804688 118.128906 103.195313 118.171875 100.597656 C 118.171875 67.753906 118.171875 34.910156 118.171875 2.066406 C 131.988281 2.078125 145.800781 2.039063 159.617188 2.082031 C 171.28125 29.453125 183.011719 56.792969 194.695313 84.152344 C 194.878906 84.609375 195.03125 85.101563 195.417969 85.433594 C 195.472656 72.90625 195.425781 60.378906 195.441406 47.851563 C 195.441406 32.589844 195.441406 17.328125 195.441406 2.066406 C 204.339844 2.074219 213.234375 2.039063 222.136719 2.082031 C 222.109375 39.414063 222.128906 76.746094 222.125 114.078125 C 208.472656 114.085938 194.820313 114.078125 181.167969 114.082031 C 176.949219 104.289063 172.886719 94.421875 168.710938 84.609375 C 160.863281 65.949219 152.996094 47.304688 145.148438 28.644531 C 145.082031 28.554688 144.945313 28.375 144.875 28.285156 C 144.832031 56.882813 144.867188 85.480469 144.855469 114.078125 C 125.492188 114.085938 106.128906 114.078125 86.765625 114.082031 C 77.574219 84.886719 68.414063 55.679688 59.230469 26.484375 C 58.996094 25.773438 58.859375 25.015625 58.492188 24.355469 C 58.054688 25.527344 57.671875 26.726563 57.316406 27.925781 C 49.816406 51.296875 42.320313 74.667969 34.828125 98.042969 C 33.070313 103.382813 31.453125 108.769531 29.632813 114.085938 C 19.765625 114.070313 9.898438 114.097656 0.03125 114.074219 C 10.949219 85.042969 21.828125 56.011719 32.734375 26.980469 Z M 32.734375 26.980469 "/>
</g>
</svg>
